<?xml version="1.0" encoding="UTF-8"?>
<svg height="128px" viewBox="0 0 128 128" width="128px" xmlns="http://www.w3.org/2000/svg" xmlns:xlink="http://www.w3.org/1999/xlink">
    <linearGradient id="a" gradientTransform="matrix(0.193104 0 0 0.348914 3.378687 276.204285)" gradientUnits="userSpaceOnUse" x1="88.595886" x2="536.595886" y1="-449.394012" y2="-449.394012">
        <stop offset="0" stop-color="#c0c0bf" stop-opacity="0.737255"/>
        <stop offset="0.0500001" stop-color="#ffffff"/>
        <stop offset="0.099807" stop-color="#c0bfbc"/>
        <stop offset="0.900001" stop-color="#c0bfbc"/>
        <stop offset="0.950001" stop-color="#ffffff"/>
        <stop offset="1" stop-color="#c0bfbc"/>
    </linearGradient>
    <linearGradient id="b" gradientUnits="userSpaceOnUse" x1="45.048141" x2="47.666637" y1="175.149445" y2="269.319031">
        <stop offset="0" stop-color="#62a0ea"/>
        <stop offset="0.5" stop-color="#99c1f1"/>
        <stop offset="1" stop-color="#99c1f1"/>
    </linearGradient>
    <clipPath id="c">
        <path d="m 28 23 h 59 v 16 h -59 z m 0 0"/>
    </clipPath>
    <clipPath id="d">
        <path d="m 29.089844 22.148438 l -0.476563 15.046874 l 35.066407 1.140626 c -0.019532 -3.441407 -0.042969 -6.882813 -0.042969 -10.320313 c 0.011719 -1.582031 0.039062 -3.164063 0.09375 -4.742187 z m 47.226562 1.535156 c 0.027344 0.101562 0.039063 0.191406 0.039063 0.273437 c 0.085937 -0.039062 0.175781 -0.078125 0.261719 -0.113281 l 0.375 -0.140625 z m 2.871094 0.09375 c 0.449219 1.34375 0.109375 1.484375 -0.765625 1.730468 c -0.433594 0.125 -0.871094 0.234376 -1.296875 0.382813 c -0.15625 0.050781 -0.308594 0.101563 -0.460938 0.15625 c -0.539062 0.253906 -1.066406 0.539063 -1.578124 0.84375 c 0.371093 -0.070313 0.738281 -0.140625 1.105468 -0.210937 c 0.507813 -0.152344 1.019532 -0.304688 1.527344 -0.453126 c 0.484375 -0.148437 0.96875 -0.28125 1.449219 -0.433593 c 0.871093 -0.230469 1.050781 0.039062 1.347656 1.453125 c 0.058594 0.269531 -0.75 0.597656 -0.949219 0.675781 c -0.769531 0.292969 -1.574218 0.464844 -2.375 0.636719 c -0.175781 0.035156 -0.347656 0.070312 -0.523437 0.105468 c -0.132813 0.039063 -0.265625 0.078126 -0.398438 0.117188 c 0.40625 -0.027344 0.726563 0.042969 1.039063 0.765625 c 0.023437 0.050781 0.039062 0.097656 0.050781 0.144531 c 0.007813 -0.003906 0.019531 -0.003906 0.027344 -0.007812 c 1.359375 -0.207032 2.71875 -0.429688 4.085937 -0.515625 c 0.648438 -0.003907 1.214844 -0.105469 1.503906 0.980469 c 0.082032 0.3125 -0.003906 0.550781 -0.171874 0.734374 c 0.125 0.003907 0.246093 0.007813 0.371093 0.011719 c 0.25 0.011719 0.5 0.023438 0.75 0.042969 c 0.777344 0.058594 1.550781 0.179688 2.316407 0.335938 c 0.09375 0.019531 0.292968 0.054687 0.46875 0.105468 l 0.234374 -7.351562 z m -13.539062 5.03125 v 0.230468 c 0.003906 -0.054687 0.003906 -0.113281 0.007812 -0.167968 c 0 -0.003906 0 -0.011719 0 -0.015625 c -0.003906 -0.015625 -0.007812 -0.03125 -0.007812 -0.046875 z m 15.863281 0.53125 v 0.003906 c -0.003907 0.003906 -0.003907 0.011719 -0.007813 0.015625 c 0.007813 -0.003906 0.015625 -0.007813 0.023438 -0.007813 v -0.003906 h -0.003906 c 0 -0.003906 -0.003907 -0.003906 -0.003907 -0.003906 h -0.003906 v -0.003906 z m 4.609375 2.042968 c -0.003906 0 -0.011719 0 -0.015625 0 c -0.011719 0 -0.023438 0.003907 -0.03125 0.007813 h -0.003907 v 0.003906 h -0.003906 v 0.003907 c 0.011719 -0.003907 0.027344 -0.007813 0.0625 -0.011719 v -0.003907 s -0.003906 0 -0.007812 0 z m 0.527344 1.96875 c -0.097657 0.027344 -0.210938 0.050782 -0.351563 0.078126 c -0.324219 0.0625 -0.652344 0.125 -0.984375 0.171874 c -0.441406 0.070313 -0.890625 0.105469 -1.335938 0.136719 c -0.78125 0.066407 -1.566406 0.105469 -2.347656 0.191407 c -0.4375 0.058593 -0.875 0.128906 -1.3125 0.207031 c -0.175781 0.445312 -0.699218 0.582031 -1.148437 0.683593 c -1.347657 0.3125 -2.695313 0.617188 -4.050781 0.902344 c -0.992188 0.214844 -1.984376 0.425782 -2.976563 0.636719 c -0.160156 0.078125 -0.320313 0.15625 -0.480469 0.230469 c -0.234375 0.101562 -0.695312 0.3125 -0.949218 0.378906 c -0.140626 0.035156 -0.292969 0.113281 -0.429688 0.066406 c -0.011719 -0.003906 -0.019531 -0.007812 -0.027344 -0.011718 c 0.011719 0.023437 0.023438 0.046874 0.035156 0.070312 v 0.011719 h -0.003906 c -0.007812 0.003906 -0.03125 0.011719 -0.042968 0.015625 c -0.035157 0.023437 -0.074219 0.046875 -0.113282 0.066406 c -0.148437 0.082031 -0.300781 0.15625 -0.457031 0.222656 c -0.414063 0.324219 -0.820313 0.652344 -1.222656 0.988282 c -0.03125 0.019531 -0.066407 0.050781 -0.113281 0.085937 l 18.132812 0.589844 z m 0 0"/>
    </clipPath>
    <clipPath id="e">
        <path d="m 35 23 h 45 v 11 h -45 z m 0 0"/>
    </clipPath>
    <clipPath id="f">
        <path d="m 29.089844 22.148438 l -0.476563 15.046874 l 35.066407 1.140626 c -0.019532 -3.441407 -0.042969 -6.882813 -0.042969 -10.320313 c 0.011719 -1.582031 0.039062 -3.164063 0.09375 -4.742187 z m 47.226562 1.535156 c 0.027344 0.101562 0.039063 0.191406 0.039063 0.273437 c 0.085937 -0.039062 0.175781 -0.078125 0.261719 -0.113281 l 0.375 -0.140625 z m 2.871094 0.09375 c 0.449219 1.34375 0.109375 1.484375 -0.765625 1.730468 c -0.433594 0.125 -0.871094 0.234376 -1.296875 0.382813 c -0.15625 0.050781 -0.308594 0.101563 -0.460938 0.15625 c -0.539062 0.253906 -1.066406 0.539063 -1.578124 0.84375 c 0.371093 -0.070313 0.738281 -0.140625 1.105468 -0.210937 c 0.507813 -0.152344 1.019532 -0.304688 1.527344 -0.453126 c 0.484375 -0.148437 0.96875 -0.28125 1.449219 -0.433593 c 0.871093 -0.230469 1.050781 0.039062 1.347656 1.453125 c 0.058594 0.269531 -0.75 0.597656 -0.949219 0.675781 c -0.769531 0.292969 -1.574218 0.464844 -2.375 0.636719 c -0.175781 0.035156 -0.347656 0.070312 -0.523437 0.105468 c -0.132813 0.039063 -0.265625 0.078126 -0.398438 0.117188 c 0.40625 -0.027344 0.726563 0.042969 1.039063 0.765625 c 0.023437 0.050781 0.039062 0.097656 0.050781 0.144531 c 0.007813 -0.003906 0.019531 -0.003906 0.027344 -0.007812 c 1.359375 -0.207032 2.71875 -0.429688 4.085937 -0.515625 c 0.648438 -0.003907 1.214844 -0.105469 1.503906 0.980469 c 0.082032 0.3125 -0.003906 0.550781 -0.171874 0.734374 c 0.125 0.003907 0.246093 0.007813 0.371093 0.011719 c 0.25 0.011719 0.5 0.023438 0.75 0.042969 c 0.777344 0.058594 1.550781 0.179688 2.316407 0.335938 c 0.09375 0.019531 0.292968 0.054687 0.46875 0.105468 l 0.234374 -7.351562 z m -13.539062 5.03125 v 0.230468 c 0.003906 -0.054687 0.003906 -0.113281 0.007812 -0.167968 c 0 -0.003906 0 -0.011719 0 -0.015625 c -0.003906 -0.015625 -0.007812 -0.03125 -0.007812 -0.046875 z m 15.863281 0.53125 v 0.003906 c -0.003907 0.003906 -0.003907 0.011719 -0.007813 0.015625 c 0.007813 -0.003906 0.015625 -0.007813 0.023438 -0.007813 v -0.003906 h -0.003906 c 0 -0.003906 -0.003907 -0.003906 -0.003907 -0.003906 h -0.003906 v -0.003906 z m 4.609375 2.042968 c -0.003906 0 -0.011719 0 -0.015625 0 c -0.011719 0 -0.023438 0.003907 -0.03125 0.007813 h -0.003907 v 0.003906 h -0.003906 v 0.003907 c 0.011719 -0.003907 0.027344 -0.007813 0.0625 -0.011719 v -0.003907 s -0.003906 0 -0.007812 0 z m 0.527344 1.96875 c -0.097657 0.027344 -0.210938 0.050782 -0.351563 0.078126 c -0.324219 0.0625 -0.652344 0.125 -0.984375 0.171874 c -0.441406 0.070313 -0.890625 0.105469 -1.335938 0.136719 c -0.78125 0.066407 -1.566406 0.105469 -2.347656 0.191407 c -0.4375 0.058593 -0.875 0.128906 -1.3125 0.207031 c -0.175781 0.445312 -0.699218 0.582031 -1.148437 0.683593 c -1.347657 0.3125 -2.695313 0.617188 -4.050781 0.902344 c -0.992188 0.214844 -1.984376 0.425782 -2.976563 0.636719 c -0.160156 0.078125 -0.320313 0.15625 -0.480469 0.230469 c -0.234375 0.101562 -0.695312 0.3125 -0.949218 0.378906 c -0.140626 0.035156 -0.292969 0.113281 -0.429688 0.066406 c -0.011719 -0.003906 -0.019531 -0.007812 -0.027344 -0.011718 c 0.011719 0.023437 0.023438 0.046874 0.035156 0.070312 v 0.011719 h -0.003906 c -0.007812 0.003906 -0.03125 0.011719 -0.042968 0.015625 c -0.035157 0.023437 -0.074219 0.046875 -0.113282 0.066406 c -0.148437 0.082031 -0.300781 0.15625 -0.457031 0.222656 c -0.414063 0.324219 -0.820313 0.652344 -1.222656 0.988282 c -0.03125 0.019531 -0.066407 0.050781 -0.113281 0.085937 l 18.132812 0.589844 z m 0 0"/>
    </clipPath>
    <clipPath id="g">
        <rect height="152" width="192"/>
    </clipPath>
    <clipPath id="h">
        <rect height="152" width="192"/>
    </clipPath>
    <clipPath id="i">
        <rect height="152" width="192"/>
    </clipPath>
    <clipPath id="j">
        <rect height="152" width="192"/>
    </clipPath>
    <linearGradient id="k" gradientUnits="userSpaceOnUse" x1="28.719469" x2="36.303165" y1="241.683746" y2="241.683746">
        <stop offset="0" stop-color="#ffbe6f"/>
        <stop offset="1" stop-color="#ffa348"/>
    </linearGradient>
    <clipPath id="l">
        <rect height="152" width="192"/>
    </clipPath>
    <clipPath id="m">
        <rect height="152" width="192"/>
    </clipPath>
    <clipPath id="n">
        <rect height="152" width="192"/>
    </clipPath>
    <clipPath id="o">
        <rect height="152" width="192"/>
    </clipPath>
    <linearGradient id="p" gradientUnits="userSpaceOnUse" x1="106.86277" x2="166.601044" y1="368.025238" y2="367.497925">
        <stop offset="0" stop-color="#ffa348"/>
        <stop offset="0.207702" stop-color="#ffbe6f"/>
        <stop offset="0.8" stop-color="#ffbe6f" stop-opacity="0.94902"/>
        <stop offset="1" stop-color="#ffa348"/>
    </linearGradient>
    <linearGradient id="q" gradientUnits="userSpaceOnUse">
        <stop offset="0" stop-color="#ffa348"/>
        <stop offset="1" stop-color="#c64600"/>
    </linearGradient>
    <linearGradient id="r" gradientTransform="matrix(1.007305 0 0 1.022102 -0.023929 -0.383439)" x1="57.496269" x2="52.576931" xlink:href="#q" y1="228.245972" y2="217.772614"/>
    <clipPath id="s">
        <rect height="152" width="192"/>
    </clipPath>
    <linearGradient id="t" gradientTransform="matrix(1.103769 0 0 1.119983 -7.261803 -22.500019)" x1="71.301155" x2="77.445168" xlink:href="#q" y1="231.538254" y2="222.354996"/>
    <clipPath id="u">
        <rect height="152" width="192"/>
    </clipPath>
    <clipPath id="v">
        <rect height="152" width="192"/>
    </clipPath>
    <clipPath id="w">
        <rect height="152" width="192"/>
    </clipPath>
    <clipPath id="x">
        <rect height="152" width="192"/>
    </clipPath>
    <clipPath id="y">
        <rect height="152" width="192"/>
    </clipPath>
    <clipPath id="z">
        <rect height="152" width="192"/>
    </clipPath>
    <clipPath id="A">
        <rect height="152" width="192"/>
    </clipPath>
    <clipPath id="B">
        <rect height="152" width="192"/>
    </clipPath>
    <linearGradient id="C" gradientUnits="userSpaceOnUse">
        <stop offset="0" stop-color="#865e3c"/>
        <stop offset="1" stop-color="#63452c"/>
    </linearGradient>
    <radialGradient id="D" cx="47.635029" cy="208.683578" gradientTransform="matrix(1.289909 0 0 1.308857 -13.411458 -60.149155)" r="1.315012" xlink:href="#C"/>
    <clipPath id="E">
        <rect height="152" width="192"/>
    </clipPath>
    <radialGradient id="F" cx="47.635029" cy="208.683578" gradientTransform="matrix(1.289909 0 0 1.308857 20.480984 -59.244148)" r="1.315012" xlink:href="#C"/>
    <clipPath id="G">
        <rect height="152" width="192"/>
    </clipPath>
    <clipPath id="H">
        <rect height="152" width="192"/>
    </clipPath>
    <clipPath id="I">
        <rect height="152" width="192"/>
    </clipPath>
    <clipPath id="J">
        <rect height="152" width="192"/>
    </clipPath>
    <clipPath id="K">
        <rect height="152" width="192"/>
    </clipPath>
    <clipPath id="L">
        <rect height="152" width="192"/>
    </clipPath>
    <clipPath id="M">
        <rect height="152" width="192"/>
    </clipPath>
    <clipPath id="N">
        <rect height="152" width="192"/>
    </clipPath>
    <clipPath id="O">
        <rect height="152" width="192"/>
    </clipPath>
    <clipPath id="P">
        <rect height="152" width="192"/>
    </clipPath>
    <clipPath id="Q">
        <rect height="152" width="192"/>
    </clipPath>
    <clipPath id="R">
        <rect height="152" width="192"/>
    </clipPath>
    <clipPath id="S">
        <rect height="152" width="192"/>
    </clipPath>
    <path d="m 28.351562 13.335938 h 70.78125 c 4.34375 0 7.863282 3.652343 7.863282 8.15625 v 89.753906 c 0 4.503906 -3.519532 8.160156 -7.863282 8.160156 h -70.78125 c -4.34375 0 -7.863281 -3.65625 -7.863281 -8.160156 v -89.753906 c 0 -4.503907 3.519531 -8.15625 7.863281 -8.15625 z m 0 0" fill="url(#a)"/>
    <path d="m 28.238281 8.578125 h 71.207031 c 4.367188 0 7.910157 3.527344 7.910157 7.878906 v 90.585938 c 0 4.351562 -3.542969 7.878906 -7.910157 7.878906 h -71.207031 c -4.367187 0 -7.910156 -3.527344 -7.910156 -7.878906 v -90.585938 c 0 -4.351562 3.542969 -7.878906 7.910156 -7.878906 z m 0 0" fill="#ffffff" stroke="#c0bfbc" stroke-width="0.195378"/>
    <path d="m 31.183594 12.964844 h 65.316406 c 4.007812 0 7.257812 2.808594 7.257812 6.277344 v 72.203124 c 0 3.46875 -3.25 6.277344 -7.257812 6.277344 h -65.316406 c -4.007813 0 -7.257813 -2.808594 -7.257813 -6.277344 v -72.203124 c 0 -3.46875 3.25 -6.277344 7.257813 -6.277344 z m 0 0" fill="#ffffff" stroke="#9a9996" stroke-width="0.16706"/>
    <g fill="#c0bfbc">
        <path d="m 27.5625 24.304688 h 5.066406 v -5.640626 h -5.066406 z m 0 0"/>
        <path d="m 32.628906 18.664062 h 5.066406 v -5.644531 h -5.066406 z m 0 0"/>
        <path d="m 37.695312 24.304688 h 5.066407 v -5.640626 h -5.066407 z m 0 0"/>
        <path d="m 42.761719 18.664062 h 5.0625 v -5.644531 h -5.0625 z m 0 0"/>
        <path d="m 47.824219 24.304688 h 5.066406 v -5.640626 h -5.066406 z m 0 0"/>
        <path d="m 52.890625 18.664062 h 5.066406 v -5.644531 h -5.066406 z m 0 0"/>
        <path d="m 57.957031 24.304688 h 5.066407 v -5.640626 h -5.066407 z m 0 0"/>
        <path d="m 63.023438 18.664062 h 5.066406 v -5.644531 h -5.066406 z m 0 0"/>
        <path d="m 68.089844 24.304688 h 5.066406 v -5.640626 h -5.066406 z m 0 0"/>
        <path d="m 73.15625 18.664062 h 5.0625 v -5.644531 h -5.0625 z m 0 0"/>
        <path d="m 78.21875 24.304688 h 5.066406 v -5.640626 h -5.066406 z m 0 0"/>
        <path d="m 83.285156 18.664062 h 5.066406 v -5.644531 h -5.066406 z m 0 0"/>
        <path d="m 88.351562 24.304688 h 5.066407 v -5.640626 h -5.066407 z m 0 0"/>
        <path d="m 93.417969 18.664062 h 5.066406 v -5.644531 h -5.066406 z m 0 0"/>
        <path d="m 98.484375 24.304688 h 5.066406 v -5.640626 h -5.066406 z m 0 0"/>
        <path d="m 27.5625 35.589844 h 5.066406 v -5.644532 h -5.066406 z m 0 0"/>
        <path d="m 32.628906 29.945312 h 5.066406 v -5.640624 h -5.066406 z m 0 0"/>
        <path d="m 37.695312 35.589844 h 5.066407 v -5.644532 h -5.066407 z m 0 0"/>
        <path d="m 42.761719 29.945312 h 5.0625 v -5.640624 h -5.0625 z m 0 0"/>
        <path d="m 47.824219 35.589844 h 5.066406 v -5.644532 h -5.066406 z m 0 0"/>
        <path d="m 52.890625 29.945312 h 5.066406 v -5.640624 h -5.066406 z m 0 0"/>
        <path d="m 57.957031 35.589844 h 5.066407 v -5.644532 h -5.066407 z m 0 0"/>
        <path d="m 63.023438 29.945312 h 5.066406 v -5.640624 h -5.066406 z m 0 0"/>
        <path d="m 68.089844 35.589844 h 5.066406 v -5.644532 h -5.066406 z m 0 0"/>
        <path d="m 73.15625 29.945312 h 5.0625 v -5.640624 h -5.0625 z m 0 0"/>
        <path d="m 78.21875 35.589844 h 5.066406 v -5.644532 h -5.066406 z m 0 0"/>
        <path d="m 83.285156 29.945312 h 5.066406 v -5.640624 h -5.066406 z m 0 0"/>
        <path d="m 88.351562 35.589844 h 5.066407 v -5.644532 h -5.066407 z m 0 0"/>
        <path d="m 93.417969 29.945312 h 5.066406 v -5.640624 h -5.066406 z m 0 0"/>
        <path d="m 98.484375 35.589844 h 5.066406 v -5.644532 h -5.066406 z m 0 0"/>
        <path d="m 27.5625 46.871094 h 5.066406 v -5.640625 h -5.066406 z m 0 0"/>
        <path d="m 32.628906 41.230469 h 5.066406 v -5.640625 h -5.066406 z m 0 0"/>
        <path d="m 37.695312 46.871094 h 5.066407 v -5.640625 h -5.066407 z m 0 0"/>
        <path d="m 42.761719 41.230469 h 5.0625 v -5.640625 h -5.0625 z m 0 0"/>
        <path d="m 47.824219 46.871094 h 5.066406 v -5.640625 h -5.066406 z m 0 0"/>
        <path d="m 52.890625 41.230469 h 5.066406 v -5.640625 h -5.066406 z m 0 0"/>
        <path d="m 57.957031 46.871094 h 5.066407 v -5.640625 h -5.066407 z m 0 0"/>
        <path d="m 63.023438 41.230469 h 5.066406 v -5.640625 h -5.066406 z m 0 0"/>
        <path d="m 68.089844 46.871094 h 5.066406 v -5.640625 h -5.066406 z m 0 0"/>
        <path d="m 73.15625 41.230469 h 5.0625 v -5.640625 h -5.0625 z m 0 0"/>
        <path d="m 78.21875 46.871094 h 5.066406 v -5.640625 h -5.066406 z m 0 0"/>
        <path d="m 83.285156 41.230469 h 5.066406 v -5.640625 h -5.066406 z m 0 0"/>
        <path d="m 88.351562 46.871094 h 5.066407 v -5.640625 h -5.066407 z m 0 0"/>
        <path d="m 93.417969 41.230469 h 5.066406 v -5.640625 h -5.066406 z m 0 0"/>
        <path d="m 98.484375 46.871094 h 5.066406 v -5.640625 h -5.066406 z m 0 0"/>
        <path d="m 27.5625 58.15625 h 5.066406 v -5.640625 h -5.066406 z m 0 0"/>
        <path d="m 32.628906 52.515625 h 5.066406 v -5.644531 h -5.066406 z m 0 0"/>
        <path d="m 37.695312 58.15625 h 5.066407 v -5.640625 h -5.066407 z m 0 0"/>
        <path d="m 42.761719 52.515625 h 5.0625 v -5.644531 h -5.0625 z m 0 0"/>
        <path d="m 47.824219 58.15625 h 5.066406 v -5.640625 h -5.066406 z m 0 0"/>
        <path d="m 52.890625 52.515625 h 5.066406 v -5.644531 h -5.066406 z m 0 0"/>
        <path d="m 57.957031 58.15625 h 5.066407 v -5.640625 h -5.066407 z m 0 0"/>
        <path d="m 63.023438 52.515625 h 5.066406 v -5.644531 h -5.066406 z m 0 0"/>
        <path d="m 68.089844 58.15625 h 5.066406 v -5.640625 h -5.066406 z m 0 0"/>
        <path d="m 73.15625 52.515625 h 5.0625 v -5.644531 h -5.0625 z m 0 0"/>
        <path d="m 78.21875 58.15625 h 5.066406 v -5.640625 h -5.066406 z m 0 0"/>
        <path d="m 83.285156 52.515625 h 5.066406 v -5.644531 h -5.066406 z m 0 0"/>
        <path d="m 88.351562 58.15625 h 5.066407 v -5.640625 h -5.066407 z m 0 0"/>
        <path d="m 93.417969 52.515625 h 5.066406 v -5.644531 h -5.066406 z m 0 0"/>
        <path d="m 98.484375 58.15625 h 5.066406 v -5.640625 h -5.066406 z m 0 0"/>
        <path d="m 27.5625 69.441406 h 5.066406 v -5.640625 h -5.066406 z m 0 0"/>
        <path d="m 32.628906 63.796875 h 5.066406 v -5.640625 h -5.066406 z m 0 0"/>
        <path d="m 37.695312 69.441406 h 5.066407 v -5.640625 h -5.066407 z m 0 0"/>
        <path d="m 42.761719 63.796875 h 5.0625 v -5.640625 h -5.0625 z m 0 0"/>
        <path d="m 47.824219 69.441406 h 5.066406 v -5.640625 h -5.066406 z m 0 0"/>
        <path d="m 52.890625 63.796875 h 5.066406 v -5.640625 h -5.066406 z m 0 0"/>
        <path d="m 57.957031 69.441406 h 5.066407 v -5.640625 h -5.066407 z m 0 0"/>
        <path d="m 63.023438 63.796875 h 5.066406 v -5.640625 h -5.066406 z m 0 0"/>
        <path d="m 68.089844 69.441406 h 5.066406 v -5.640625 h -5.066406 z m 0 0"/>
        <path d="m 73.15625 63.796875 h 5.0625 v -5.640625 h -5.0625 z m 0 0"/>
        <path d="m 78.21875 69.441406 h 5.066406 v -5.640625 h -5.066406 z m 0 0"/>
        <path d="m 83.285156 63.796875 h 5.066406 v -5.640625 h -5.066406 z m 0 0"/>
        <path d="m 88.351562 69.441406 h 5.066407 v -5.640625 h -5.066407 z m 0 0"/>
        <path d="m 93.417969 63.796875 h 5.066406 v -5.640625 h -5.066406 z m 0 0"/>
        <path d="m 98.484375 69.441406 h 5.066406 v -5.640625 h -5.066406 z m 0 0"/>
        <path d="m 27.5625 80.726562 h 5.066406 v -5.644531 h -5.066406 z m 0 0"/>
        <path d="m 32.628906 75.082031 h 5.066406 v -5.640625 h -5.066406 z m 0 0"/>
        <path d="m 37.695312 80.726562 h 5.066407 v -5.644531 h -5.066407 z m 0 0"/>
        <path d="m 42.761719 75.082031 h 5.0625 v -5.640625 h -5.0625 z m 0 0"/>
        <path d="m 47.824219 80.726562 h 5.066406 v -5.644531 h -5.066406 z m 0 0"/>
        <path d="m 52.890625 75.082031 h 5.066406 v -5.640625 h -5.066406 z m 0 0"/>
        <path d="m 57.957031 80.726562 h 5.066407 v -5.644531 h -5.066407 z m 0 0"/>
        <path d="m 63.023438 75.082031 h 5.066406 v -5.640625 h -5.066406 z m 0 0"/>
        <path d="m 68.089844 80.726562 h 5.066406 v -5.644531 h -5.066406 z m 0 0"/>
        <path d="m 73.15625 75.082031 h 5.0625 v -5.640625 h -5.0625 z m 0 0"/>
        <path d="m 78.21875 80.726562 h 5.066406 v -5.644531 h -5.066406 z m 0 0"/>
        <path d="m 83.285156 75.082031 h 5.066406 v -5.640625 h -5.066406 z m 0 0"/>
        <path d="m 88.351562 80.726562 h 5.066407 v -5.644531 h -5.066407 z m 0 0"/>
        <path d="m 93.417969 75.082031 h 5.066406 v -5.640625 h -5.066406 z m 0 0"/>
        <path d="m 98.484375 80.726562 h 5.066406 v -5.644531 h -5.066406 z m 0 0"/>
        <path d="m 27.5625 92.007812 h 5.066406 v -5.640624 h -5.066406 z m 0 0"/>
        <path d="m 32.628906 86.367188 h 5.066406 v -5.640626 h -5.066406 z m 0 0"/>
        <path d="m 37.695312 92.007812 h 5.066407 v -5.640624 h -5.066407 z m 0 0"/>
        <path d="m 42.761719 86.367188 h 5.0625 v -5.640626 h -5.0625 z m 0 0"/>
        <path d="m 47.824219 92.007812 h 5.066406 v -5.640624 h -5.066406 z m 0 0"/>
        <path d="m 52.890625 86.367188 h 5.066406 v -5.640626 h -5.066406 z m 0 0"/>
        <path d="m 57.957031 92.007812 h 5.066407 v -5.640624 h -5.066407 z m 0 0"/>
        <path d="m 63.023438 86.367188 h 5.066406 v -5.640626 h -5.066406 z m 0 0"/>
        <path d="m 68.089844 92.007812 h 5.066406 v -5.640624 h -5.066406 z m 0 0"/>
        <path d="m 73.15625 86.367188 h 5.0625 v -5.640626 h -5.0625 z m 0 0"/>
        <path d="m 78.21875 92.007812 h 5.066406 v -5.640624 h -5.066406 z m 0 0"/>
        <path d="m 83.285156 86.367188 h 5.066406 v -5.640626 h -5.066406 z m 0 0"/>
        <path d="m 88.351562 92.007812 h 5.066407 v -5.640624 h -5.066407 z m 0 0"/>
        <path d="m 93.417969 86.367188 h 5.066406 v -5.640626 h -5.066406 z m 0 0"/>
        <path d="m 98.484375 92.007812 h 5.066406 v -5.640624 h -5.066406 z m 0 0"/>
        <path d="m 32.628906 97.652344 h 5.066406 v -5.644532 h -5.066406 z m 0 0"/>
        <path d="m 42.761719 97.652344 h 5.0625 v -5.644532 h -5.0625 z m 0 0"/>
        <path d="m 52.890625 97.652344 h 5.066406 v -5.644532 h -5.066406 z m 0 0"/>
        <path d="m 63.023438 97.652344 h 5.066406 v -5.644532 h -5.066406 z m 0 0"/>
        <path d="m 73.15625 97.652344 h 5.0625 v -5.644532 h -5.0625 z m 0 0"/>
        <path d="m 83.285156 97.652344 h 5.066406 v -5.644532 h -5.066406 z m 0 0"/>
        <path d="m 93.417969 97.652344 h 5.066406 v -5.644532 h -5.066406 z m 0 0"/>
    </g>
    <path d="m 30.441287 184.705049 h 33.520755 v 82.970885 h -33.520755 c -3.393182 0 -6.146506 -2.751683 -6.146506 -6.145425 v -70.680034 c 0 -3.393743 2.753324 -6.145426 6.146506 -6.145426 z m 0 0" fill="url(#b)" stroke="#3584e4" stroke-width="0.217" transform="matrix(1.007305 0 0 1.022102 -0.569911 -175.84595)"/>
    <g clip-path="url(#c)">
        <g clip-path="url(#d)">
            <path d="m 28.78125 31.800781 s 6.5625 3.679688 10.308594 2.363281 c 0.371094 0.101563 2.078125 1.320313 3.316406 0.113282 c 0.074219 0.179687 1.789062 1.570312 3.015625 0.5 c 0.167969 0.109375 4.046875 2.890625 5.480469 -0.144532 c 0.082031 -0.023437 2.019531 0.902344 2.53125 -0.289062 c -0.101563 -0.042969 2.285156 4.316406 5.40625 0.320312 c -0.257813 0.382813 1.074218 1.609376 2.351562 0.839844 c 0.203125 0.0625 6.027344 5.839844 8.085938 0.984375 c 0.617187 -1.53125 0.53125 -1.652343 0.53125 -1.652343 s 2.597656 2.515624 3.550781 -0.707032 c -0.15625 -0.019531 2.390625 2.75 3.722656 0.886719 c 1.335938 -1.867187 4.769531 -2.207031 6.511719 -2.269531 c 1.738281 -0.0625 3.070312 0.089844 3.070312 0.089844 s -2.894531 -1.570313 -7.359374 -1.359376 c 0.453124 0.183594 0.261718 -2.722656 -4.082032 -0.921874 c 0.292969 0.21875 0.425782 -2.382813 -2.828125 -1.78125 c 0.238281 0.070312 1.136719 -3.566407 -2.160156 -1.660157 c 0.199219 0.136719 0.894531 -4.609375 -3.242187 -3.539062 c -4.136719 1.070312 -3.296876 3.257812 -3.296876 3.257812 s -2.023437 -2.246093 -3.636718 -0.105469 c 0.074218 -0.011718 -3.355469 -5.34375 -8.207032 -2.433593 c -4.464843 2.46875 -2.664062 5 -2.664062 5 s -2.25 -0.996094 -2.878906 0.980469 c 0.164062 -0.078126 -2.480469 -2.742188 -3.75 0.457031 c 0.160156 0.179687 -2.488282 -2.359375 -3.5625 0.382812 c 0.230468 0.214844 -4.546875 -1.898437 -3.238282 0.746094 c 0.097657 -0.117187 -2.929687 1.347656 -6.972656 -0.058594 z m 0 0" fill="#deddda"/>
        </g>
    </g>
    <g clip-path="url(#e)">
        <g clip-path="url(#f)">
            <path d="m 68.324219 23.425781 c -0.375 -0.027343 -0.816407 0.015625 -1.332031 0.148438 c -4.140626 1.074219 -3.296876 3.257812 -3.296876 3.257812 s -2.023437 -2.246093 -3.636718 -0.101562 c 0.074218 -0.015625 -3.355469 -5.34375 -8.210938 -2.433594 c -4.460937 2.464844 -2.660156 4.996094 -2.660156 4.996094 s -2.238281 -0.988281 -2.875 0.964843 c -0.023438 -0.242187 -2.53125 -2.613281 -3.753906 0.472657 c 0.15625 0.183593 -2.488282 -2.359375 -3.5625 0.382812 c 0.226562 0.210938 -4.402344 -1.832031 -3.289063 0.636719 c 0.53125 -0.089844 1.34375 -0.128906 2.222657 0.207031 c 1.515624 0.578125 1.71875 0.722657 1.71875 0.722657 s -0.050782 -1.203126 1.214843 -1.1875 c 1.269531 0.015624 1.65625 0.902343 1.65625 0.902343 s -0.601562 0.40625 -0.792969 0.765625 c -0.191406 0.359375 -0.152343 0.285156 -0.152343 0.285156 s 1.351562 -0.972656 2.230469 -0.601562 c 0.878906 0.367188 0.910156 0.460938 0.878906 0.367188 c -0.035156 -0.09375 -0.195313 -0.644532 -0.734375 -0.875 c -0.539063 -0.230469 -0.578125 -0.253907 -0.578125 -0.253907 s -0.191406 -1.117187 0.769531 -1.21875 c 0.960937 -0.097656 2.136719 0.628907 2.136719 0.628907 s -0.660156 0.1875 -0.683594 0.890624 l -0.023438 0.707032 s 1.835938 -2.453125 3.375 -2.328125 c 1.539063 0.125 1.941407 1 1.820313 1.359375 l -0.125 0.359375 s 0.644531 -0.675781 1.328125 -0.46875 c 0.6875 0.207031 0.792969 0.464843 0.707031 0.1875 c -0.085937 -0.273438 -1.589843 -1.984375 -0.640625 -2.796875 c 0.949219 -0.8125 2.234375 -0.53125 2.488282 0.039062 c 0.25 0.574219 0.308593 0.65625 0.308593 0.65625 s -0.324219 -3.277344 2.191407 -2.652344 c 2.515624 0.625 3.378906 2.605469 2.679687 3.519532 c -0.703125 0.914062 -0.710937 0.890625 -0.710937 0.890625 s -0.746094 -0.371094 -1.726563 -0.214844 c -0.984375 0.152344 -1.128906 0.148437 -0.984375 0.152344 c 0.144531 0.003906 3.019531 0.386719 4.691406 1.824219 c 0.53125 0.21875 0.355469 -0.421876 -0.0625 -0.78125 c -0.417968 -0.359376 -0.429687 -0.371094 -0.429687 -0.371094 s 0.46875 -2.566406 3.027343 -2.503906 c 2.5625 0.058593 2.769532 2.910156 2.769532 2.910156 s 2.078125 -3.433594 4.40625 -2.523438 c 1.660156 0.976563 1.238281 1.984375 1.238281 1.984375 s -0.929687 0.429688 -1.230469 0.972657 l -0.300781 0.542968 s 2.761719 -2.644531 5.023437 -0.84375 c -0.007812 0.214844 0.945313 -1.671875 4.058594 -1.75 c 0.015625 -0.605468 -0.8125 -2.085937 -4.15625 -0.734375 c 0.179688 -0.335937 -0.070312 -2.273437 -2.921875 -1.746093 c 0.234375 0.070312 1.125 -3.539063 -2.125 -1.679688 c 0.191407 -0.269531 0.539063 -3.488281 -1.941406 -3.667969 z m 0 0" fill="#ffffff"/>
        </g>
    </g>
    <g clip-path="url(#g)" transform="matrix(1 0 0 1 -8 -16)">
        <path d="m 29.320088 244.774962 l -4.842945 3.115648 l 4.901107 -3.115648 c 2.132602 -1.038549 4.33112 -1.946786 6.576168 -2.708916 c 2.136479 -0.726589 4.315611 -1.322867 6.518007 -1.788832 c 2.163621 -0.288266 4.338875 -0.477812 6.521884 -0.576533 c 1.923219 -0.086875 3.85807 -0.098721 5.765779 0.17375 c 3.295839 0.465965 6.4676 1.792781 9.115904 3.806698" fill="#57e389" fill-rule="evenodd" stroke="#26a269" stroke-width="0.095544" transform="matrix(1.007426 0 0 0.98921 7.321569 -157.708149)"/>
    </g>
    <g clip-path="url(#h)" transform="matrix(1 0 0 1 -8 -16)">
        <path d="m 28.757812 263.464844 c -1.230468 -0.25 -2.203124 -0.789063 -3.121093 -1.730469 c -0.375 -0.382813 -0.804688 -0.902344 -0.953125 -1.15625 c -0.394532 -0.679687 -0.71875 -1.699219 -0.808594 -2.566406 c -0.042969 -0.4375 -0.078125 -3.65625 -0.078125 -7.605469 c -0.003906 -5.46875 0.015625 -6.832031 0.097656 -6.765625 c 0.074219 0.0625 0.796875 -0.363281 2.730469 -1.605469 c 1.9375 -1.238281 2.699219 -1.6875 2.882812 -1.691406 c 0.136719 0 7.835938 -0.246094 17.105469 -0.546875 c 11.925781 -0.386719 16.890625 -0.519531 16.992188 -0.460937 c 0.132812 0.078124 0.140625 0.746093 0.140625 12.167968 v 12.082032 l -17.234375 -0.007813 c -13.835938 -0.003906 -17.335938 -0.027344 -17.753907 -0.113281 z m 0 0" fill="#57e389" fill-rule="evenodd" stroke="#57e389" stroke-width="0.032148" transform="matrix(1 0 0 1 8 -156)"/>
    </g>
    <g clip-path="url(#i)" transform="matrix(1 0 0 1 -8 -16)">
        <path d="m 29.078125 269.515625 c -2.507813 -0.460937 -4.390625 -2.324219 -4.917969 -4.859375 c -0.09375 -0.457031 -0.101562 -0.761719 -0.09375 -3.839844 c 0.003906 -2.039062 0.023438 -3.148437 0.050782 -2.84375 c 0.078124 0.929688 0.449218 2.082032 0.882812 2.75 c 0.335938 0.515625 1.507812 1.679688 2.007812 1.996094 c 0.507813 0.316406 1.035157 0.546875 1.605469 0.703125 c 0.40625 0.109375 0.617188 0.113281 4.859375 0.15625 c 2.441406 0.027344 10.25 0.050781 17.351563 0.050781 l 12.914062 0.003906 v 5.964844 l -17.132812 -0.003906 c -13.917969 -0.003906 -17.207031 -0.019531 -17.527344 -0.078125 z m 0 0" fill="#57e389" fill-rule="evenodd" stroke="#57e389" stroke-width="0.021932" transform="matrix(1 0 0 1 8 -156)"/>
    </g>
    <g clip-path="url(#j)" transform="matrix(1 0 0 1 -8 -16)">
        <path d="m 23.890625 246.425781 c 11.957031 -0.746093 22.816406 4.910157 30.335937 11.542969 c 3.898438 3.488281 7.96875 7.167969 9.660157 11.664062 l -34.824219 0.050782 l -1.71875 -0.679688 l -0.636719 -0.382812 l -0.371093 -0.285156 l -0.570313 -0.476563 l -0.5 -0.601563 l -0.605469 -0.855468 l -0.167968 -0.414063 l -0.402344 -1.171875 l -0.066406 -1.144531 z m 0 0" fill="#8ff0a4" fill-rule="evenodd" stroke="#2ec27e" stroke-width="0.099938" transform="matrix(1 0 0 1 8 -156)"/>
    </g>
    <path d="m 23.445312 24.964844 s 1.53125 0.046875 3.441407 0.078125 c 1.90625 0.03125 6.796875 2.835937 18.945312 -0.417969 c 2.386719 -0.3125 7.761719 1.128906 8.800781 1.042969 c 1.042969 -0.082031 1.152344 -0.355469 1.152344 -0.355469 s -2.542968 0.167969 -4.726562 -1.039062 c -2.371094 -0.867188 -3.523438 -0.628907 -3.523438 -0.628907 s 1.847656 -2.058593 -1.535156 -2.179687 c -0.199219 -0.253906 2.3125 -3.410156 -1.710938 -4.035156 c -2.789062 -0.242188 -2.460937 1.019531 -2.460937 1.019531 s 0.21875 -4.214844 -5.089844 -4.214844 c -5.308593 0 -7.710937 3.835937 -5.9375 7.050781 c -0.070312 0.121094 -3.945312 -0.09375 -2.664062 2.265625 c -0.164063 0.082031 -3.304688 1.132813 -4.691407 1.414063 z m 0 0" fill="#deddda"/>
    <path d="m 36.738281 14.234375 c -4.582031 0 -7 2.859375 -6.433593 5.710937 c 0.683593 -1.242187 3.441406 -5.417968 7.945312 -1.261718 c -0.070312 -0.09375 -4.59375 -0.125 -5.289062 3.921875 c 0.050781 0.066406 3.894531 -4.675781 7.871093 -0.671875 c 0 -0.011719 0.929688 -3.34375 2.730469 -1.804688 c 1.800781 1.535156 -2.070312 3.6875 -2.070312 3.6875 s 2.710937 -1.066406 3.390624 -0.816406 c 0.558594 0.203125 1.039063 0.929688 2.679688 0.609375 c 0.148438 -0.171875 1.664062 -2.03125 -1.5625 -2.144531 c -0.199219 -0.253906 2.3125 -3.410156 -1.710938 -4.035156 c -2.046874 -0.179688 -2.410156 0.453124 -2.460937 0.800781 c -0.042969 -0.855469 -0.5 -3.996094 -5.089844 -3.996094 z m 0 0" fill="#ffffff"/>
    <g clip-path="url(#l)" transform="matrix(1 0 0 1 -8 -16)">
        <path d="m 28.828406 226.549769 l 7.365131 0.000075 l 0.0014 26.585537 c -0.00207 2.033871 -1.648908 3.681585 -3.683363 3.681754 s -3.683838 -1.647957 -3.681768 -3.681829 z m 0 0" fill="url(#k)" fill-rule="evenodd" stroke="#ffa348" stroke-width="0.218" transform="matrix(1.263348 0.364886 -0.515355 0.924179 136.141815 -145.219795)"/>
    </g>
    <g clip-path="url(#m)" transform="matrix(1 0 0 1 -8 -16)">
        <path d="m 28.829686 226.55004 l 7.365131 0.000075 l -0.001263 26.586588 c 0.000592 2.03282 -1.648909 3.681585 -3.683364 3.681754 c -2.031792 -0.000882 -3.681175 -1.649008 -3.681767 -3.681828 z m 0 0" fill="url(#k)" fill-rule="evenodd" stroke="#ffa348" stroke-width="0.218" transform="matrix(-1.263348 0.364886 0.515355 0.924179 8.316692 -147.294731)"/>
    </g>
    <g clip-path="url(#n)" transform="matrix(1 0 0 1 -8 -16)">
        <path d="m 47.402344 212.175781 l 4.886718 8.847657" fill="none" stroke="#c64600" stroke-width="0.572278" transform="matrix(1 0 0 1 8 -156)"/>
    </g>
    <g clip-path="url(#o)" transform="matrix(1 0 0 1 -8 -16)">
        <path d="m 74.492122 211.633693 c 0.457595 -0.917227 1.058673 -1.769485 1.77221 -2.507088 c 1.00826 -1.047169 2.272462 -1.880317 3.687904 -2.212812 c 0.919067 -0.217842 1.888548 -0.217842 2.803737 0" fill="none" stroke="#c64600" stroke-width="0.564" transform="matrix(1.007305 0 0 1.022102 7.530117 -153.065077)"/>
    </g>
    <path d="m 134.749242 325.601479 h 3.967733 c 13.514434 0 24.472935 10.958119 24.472935 24.474898 v 59.666753 h -52.918851 v -59.666753 c 0 -13.516779 10.958501 -24.474898 24.478183 -24.474898 z m 0 0" fill="url(#p)" fill-rule="evenodd" stroke="#ffa348" stroke-opacity="0.847059" stroke-width="0.396924" transform="matrix(0.744285 0 0 0.664105 -37.72937 -174.249253)"/>
    <g clip-path="url(#s)" transform="matrix(1 0 0 1 -8 -16)">
        <path d="m 64.519531 230.390625 c 0 4.125 -3.292969 7.46875 -7.355469 7.46875 c -4.066406 0 -7.359374 -3.34375 -7.359374 -7.46875 c 0 -4.121094 3.292968 -7.464844 7.359374 -7.464844 c 4.0625 0 7.355469 3.34375 7.355469 7.464844 z m 0 0" fill="#ffffff" fill-rule="evenodd" stroke="url(#r)" stroke-width="0.221091" transform="matrix(1 0 0 1 8 -156)"/>
    </g>
    <g clip-path="url(#u)" transform="matrix(1 0 0 1 -8 -16)">
        <path d="m 79.476562 231.589844 c 0 2.765625 -2.207031 5.003906 -4.929687 5.003906 c -2.726563 0 -4.933594 -2.238281 -4.933594 -5.003906 s 2.207031 -5.003906 4.933594 -5.003906 c 2.722656 0 4.929687 2.238281 4.929687 5.003906 z m 0 0" fill="#ffffff" fill-rule="evenodd" stroke="url(#t)" stroke-width="0.242383" transform="matrix(1 0 0 1 8 -156)"/>
    </g>
    <g clip-path="url(#v)" transform="matrix(1 0 0 1 -8 -16)">
        <path d="m 58.886719 230.601562 c 0 1.15625 -0.921875 2.097657 -2.066407 2.097657 c -1.140624 0 -2.066406 -0.941407 -2.066406 -2.097657 c 0 -1.160156 0.925782 -2.097656 2.066406 -2.097656 c 1.144532 0 2.066407 0.9375 2.066407 2.097656 z m 0 0" fill="#63452c" fill-rule="evenodd" stroke="#000000" stroke-width="0.091321" transform="matrix(1 0 0 1 8 -156)"/>
    </g>
    <g clip-path="url(#w)" transform="matrix(1 0 0 1 -8 -16)">
        <path d="m 76.371094 231.570312 c 0 1.011719 -0.808594 1.832032 -1.804688 1.832032 c -1 0 -1.808594 -0.820313 -1.808594 -1.832032 c 0 -1.011718 0.808594 -1.832031 1.808594 -1.832031 c 0.996094 0 1.804688 0.820313 1.804688 1.832031 z m 0 0" fill="#63452c" fill-rule="evenodd" stroke="#000000" stroke-width="0.091321" transform="matrix(1 0 0 1 8 -156)"/>
    </g>
    <g clip-path="url(#x)" transform="matrix(1 0 0 1 -8 -16)">
        <path d="m 59.886676 237.301418 h 15.569856 v 2.373327 c 0 4.005227 -3.245821 7.24992 -7.247836 7.24992 h -0.717415 c -4.19979 0 -7.604605 -3.405208 -7.604605 -7.601524 z m 0 0" fill-rule="evenodd" stroke="#e66100" stroke-opacity="0.847059" stroke-width="0.565" transform="matrix(1.007305 0 0 1.022102 5.246163 -159.014947)"/>
    </g>
    <g clip-path="url(#y)" transform="matrix(1 0 0 1 -8 -16)">
        <path d="m 63.304569 244.34141 c -0.977237 -0.114653 -2.384922 -0.691742 -3.203164 -1.314693 l -0.473106 -0.363069 l 0.445961 -0.091723 c 0.434327 -0.087901 6.34428 -0.175802 8.690422 -0.12994 l 1.151743 0.02293 l -0.473106 0.416575 c -0.775585 0.676455 -2.253073 1.314693 -3.389304 1.463742 c -1.147865 0.149049 -1.450342 0.149049 -2.749446 -0.003822 z m 0 0" fill="#f66151" fill-rule="evenodd" stroke="#ed333b" stroke-opacity="0.847059" stroke-width="0.022358" transform="matrix(1.007305 0 0 1.022102 8.522052 -157.214442)"/>
    </g>
    <g clip-path="url(#z)" transform="matrix(1 0 0 1 -8 -16)">
        <path d="m 69.986075 88.44842 c -0.903555 -0.309564 -2.082444 -0.989841 -2.485747 -1.433168 c -0.217164 -0.240772 -0.155117 -0.252238 1.706285 -0.336317 c 1.062551 -0.049683 3.482374 -0.091723 5.3748 -0.091723 c 3.412571 0 3.443594 0.003822 3.203163 0.267525 c -0.449839 0.496832 -1.954473 1.383485 -2.788226 1.643366 c -1.240935 0.386 -3.808119 0.359248 -5.010275 -0.049683 z m 0 0" fill="#f66151" fill-rule="evenodd" stroke="#ed333b" stroke-opacity="0.847059" stroke-width="0.022358" transform="matrix(1.007305 0 0 1.022102 0.463612 2.233433)"/>
    </g>
    <g clip-path="url(#A)" transform="matrix(1 0 0 1 -8 -16)">
        <path d="m 70.354478 88.689192 c -1.330127 -0.366891 -3.420327 -1.685405 -3.117849 -1.972039 c 0.058169 -0.057327 2.578818 -0.14905 5.595841 -0.202555 c 6.224064 -0.110831 5.875051 -0.191089 4.27347 0.989842 c -1.450343 1.070099 -2.516772 1.387307 -4.610849 1.37202 c -0.818242 -0.003822 -1.783844 -0.087901 -2.140613 -0.187268 z m 0 0" fill="#f66151" fill-rule="evenodd" stroke="#ed333b" stroke-opacity="0.847059" stroke-width="0.022358" transform="matrix(1.007305 0 0 1.022102 0.463612 2.233433)"/>
    </g>
    <g clip-path="url(#B)" transform="matrix(1 0 0 1 -8 -16)">
        <path d="m 59.073756 242.858559 c 3.431961 -1.907069 7.93035 -2.388614 11.385578 -0.271347" fill="#f66151" fill-rule="evenodd" stroke="#ed333b" stroke-opacity="0.847059" stroke-width="0.165" transform="matrix(1.007305 0 0 1.022102 8.522052 -157.214442)"/>
    </g>
    <g clip-path="url(#E)" transform="matrix(1 0 0 1 -8 -16)">
        <path d="m 49.34375 212.988281 c 0 0.734375 -0.585938 1.328125 -1.308594 1.328125 c -0.726562 0 -1.3125 -0.59375 -1.3125 -1.328125 s 0.585938 -1.332031 1.3125 -1.332031 c 0.722656 0 1.308594 0.597656 1.308594 1.332031 z m 0 0" fill="url(#D)" fill-rule="evenodd" stroke="#63452c" stroke-width="0.776398" transform="matrix(1 0 0 1 8 -156)"/>
    </g>
    <g clip-path="url(#G)" transform="matrix(1 0 0 1 -8 -16)">
        <path d="m 83.238281 213.894531 c 0 0.734375 -0.589843 1.328125 -1.3125 1.328125 c -0.722656 0 -1.3125 -0.59375 -1.3125 -1.328125 s 0.589844 -1.332031 1.3125 -1.332031 c 0.722657 0 1.3125 0.597656 1.3125 1.332031 z m 0 0" fill="url(#F)" fill-rule="evenodd" stroke="#63452c" stroke-width="0.776398" transform="matrix(1 0 0 1 8 -156)"/>
    </g>
    <g clip-path="url(#H)" transform="matrix(1 0 0 1 -8 -16)">
        <path d="m 69.777344 83.8125 h -2.886719 l 1.390625 5.964844 z m 0 0" fill="#ffffff" fill-rule="evenodd"/>
    </g>
    <g clip-path="url(#I)" transform="matrix(1 0 0 1 -8 -16)">
        <path d="m 80.101562 83.8125 h -2.882812 l 1.386719 5.964844 z m 0 0" fill="#ffffff" fill-rule="evenodd"/>
    </g>
    <g clip-path="url(#J)" transform="matrix(1 0 0 1 -8 -16)">
        <path d="m 70.492188 83.8125 h -1.171876 l 0.5625 2.417969 z m 0 0" fill="#ffffff" fill-rule="evenodd"/>
    </g>
    <g clip-path="url(#K)" transform="matrix(1 0 0 1 -8 -16)">
        <path d="m 71.707031 83.8125 h -1.171875 l 0.5625 2.417969 z m 0 0" fill="#ffffff" fill-rule="evenodd"/>
    </g>
    <g clip-path="url(#L)" transform="matrix(1 0 0 1 -8 -16)">
        <path d="m 72.769531 83.8125 h -1.171875 l 0.566406 2.417969 z m 0 0" fill="#ffffff" fill-rule="evenodd"/>
    </g>
    <g clip-path="url(#M)" transform="matrix(1 0 0 1 -8 -16)">
        <path d="m 73.832031 83.8125 h -1.171875 l 0.566406 2.417969 z m 0 0" fill="#ffffff" fill-rule="evenodd"/>
    </g>
    <g clip-path="url(#N)" transform="matrix(1 0 0 1 -8 -16)">
        <path d="m 75.046875 83.8125 h -1.171875 l 0.566406 2.417969 z m 0 0" fill="#ffffff" fill-rule="evenodd"/>
    </g>
    <g clip-path="url(#O)" transform="matrix(1 0 0 1 -8 -16)">
        <path d="m 76.261719 83.8125 h -1.171875 l 0.566406 2.417969 z m 0 0" fill="#ffffff" fill-rule="evenodd"/>
    </g>
    <g clip-path="url(#P)" transform="matrix(1 0 0 1 -8 -16)">
        <path d="m 80.058594 83.8125 h -1.171875 l 0.566406 2.417969 z m 0 0" fill="#ffffff" fill-rule="evenodd"/>
    </g>
    <g clip-path="url(#Q)" transform="matrix(1 0 0 1 -8 -16)">
        <path d="m 80.96875 83.8125 h -1.167969 l 0.5625 2.417969 z m 0 0" fill="#ffffff" fill-rule="evenodd"/>
    </g>
    <g clip-path="url(#R)" transform="matrix(1 0 0 1 -8 -16)">
        <path d="m 67.148438 83.8125 h -1.167969 l 0.5625 2.417969 z m 0 0" fill="#ffffff" fill-rule="evenodd"/>
    </g>
    <g clip-path="url(#S)" transform="matrix(1 0 0 1 -8 -16)">
        <path d="m 77.324219 83.8125 h -1.167969 l 0.5625 2.417969 z m 0 0" fill="#ffffff" fill-rule="evenodd"/>
    </g>
</svg>
